<svg xmlns="http://www.w3.org/2000/svg" xmlns:xlink="http://www.w3.org/1999/xlink" width="800px" height="142px" viewBox="0 0 4245.303370786517 753.3332955209853">
    <g id="8aed3f1c-6e22-429e-a015-ca686ca72467">
<rect style="stroke: rgb(193,193,193); stroke-width: 0; stroke-dasharray: none; stroke-linecap: butt; stroke-dashoffset: 0; stroke-linejoin: miter; stroke-miterlimit: 4; fill: rgb(255,255,255); fill-rule: nonzero; opacity: 1;" x="-2122.6516853932585" y="-376.66664776049265" rx="0" ry="0" width="4245.303370786517" height="753.3332955209853" transform="matrix(1 0 0 1 2122.651685 376.666648)"></rect>
</g>
<g id="e734add3-60f2-48bf-83e7-3ca131d33296">
<g style="">
		<g id="e734add3-60f2-48bf-83e7-3ca131d33296-child-0">
<path style="stroke: rgb(193,193,193); stroke-width: 0; stroke-dasharray: none; stroke-linecap: butt; stroke-dashoffset: 0; stroke-linejoin: miter; stroke-miterlimit: 4; fill: rgb(0,0,0); fill-rule: nonzero; opacity: 1;" transform="matrix(8.472679 0 0 8.472679 2122.651807 376.666659) matrix(1 0 0 1 0 0)  translate(-246.56, -31.324171)" d="M 108.00 53.72 C 104.24 52.70 103.45 52.06 103.19 49.83 L 102.88 47.16 L 107.60 48.58 C 113.27 50.29 117.61 50.38 121.87 48.89 C 125.65 47.58 127.00 45.38 127.00 40.55 C 127.00 35.75 122.73 33.01 115.25 33.00 C 110.39 33.00 110.00 32.82 110.00 30.62 C 110.00 28.46 110.50 28.21 115.67 27.78 C 120.27 27.40 121.78 26.79 123.67 24.60 C 126.48 21.33 126.64 18.02 124.13 14.92 C 122.62 13.05 121.33 12.63 117.31 12.69 C 114.59 12.73 110.97 13.48 109.28 14.36 C 106.62 15.73 106.04 15.75 105.01 14.52 C 104.36 13.73 104.15 12.57 104.54 11.94 C 106.84 8.22 120.54 6.68 126.03 9.52 C 129.26 11.19 132.00 15.63 132.00 19.20 C 131.99 22.35 128.59 27.68 126.07 28.48 C 123.64 29.25 123.30 31.00 125.58 31.00 C 126.44 31.00 128.52 32.37 130.20 34.05 C 132.96 36.81 133.20 37.55 132.77 42.06 C 132.03 49.79 127.48 53.56 117.84 54.46 C 114.90 54.73 110.47 54.40 108.00 53.72 Z M 158.00 52.78 C 154.73 51.13 152.86 49.27 151.17 46.00 C 149.10 41.99 148.89 40.47 149.27 32.00 C 150.01 15.14 156.05 8.00 169.57 8.00 C 174.53 8.00 175.00 8.19 175.00 10.25 C 175.00 12.30 174.52 12.50 169.50 12.55 C 161.03 12.63 155.01 18.55 155.00 26.78 L 155.00 30.06 L 157.97 27.86 C 164.32 23.17 174.53 25.86 177.38 32.98 C 179.42 38.09 179.42 40.91 177.39 45.99 C 174.26 53.82 165.84 56.76 158.00 52.78 Z M 168.34 48.89 C 173.49 46.55 174.80 36.71 170.55 32.45 C 166.00 27.91 157.41 29.88 155.20 35.96 C 153.91 39.51 155.49 45.15 158.50 47.75 C 161.37 50.22 164.60 50.60 168.34 48.89 Z M 203.50 54.54 C 202.95 54.33 200.81 53.88 198.75 53.54 C 195.39 52.98 195.00 52.60 195.00 49.92 C 195.00 47.33 195.25 47.06 196.83 47.91 C 200.71 49.99 208.57 50.30 212.32 48.52 C 218.58 45.55 219.58 37.17 214.18 32.92 C 212.04 31.24 210.33 30.92 204.59 31.11 C 199.30 31.28 197.38 30.97 196.67 29.84 C 196.09 28.92 196.07 24.54 196.61 18.42 L 197.50 8.50 L 208.75 8.22 L 220.00 7.93 L 220.00 10.47 C 220.00 12.99 219.96 13.00 211.00 13.00 C 202.21 13.00 202.00 13.05 202.00 15.36 C 202.00 16.66 201.73 19.70 201.40 22.11 L 200.80 26.50 L 205.85 26.16 C 216.62 25.43 223.00 30.33 223.00 39.33 C 222.99 45.35 220.51 50.17 216.28 52.35 C 213.42 53.84 205.31 55.22 203.50 54.54 Z M 4.00 31.50 L 4.00 9.00 L 7.98 9.00 L 11.96 9.00 L 17.02 19.73 C 23.29 33.03 23.41 33.59 21.16 38.50 L 19.32 42.50 L 15.71 35.50 L 12.10 28.50 L 12.05 41.25 L 12.00 54.00 L 8.00 54.00 L 4.00 54.00 L 4.00 31.50 Z M 38.00 40.80 C 38.00 33.54 37.63 28.03 37.18 28.55 C 36.73 29.07 34.37 33.88 31.93 39.23 C 27.92 48.05 27.24 48.97 24.79 48.98 C 19.26 49.02 19.69 46.67 28.80 27.25 L 37.35 9.00 L 41.67 9.00 L 46.00 9.00 L 46.00 31.50 L 46.00 54.00 L 42.00 54.00 L 38.00 54.00 L 38.00 40.80 Z M 70.06 45.25 C 70.12 36.67 70.25 36.23 76.38 23.00 L 82.65 9.50 L 86.82 9.19 C 89.12 9.02 91.00 9.29 91.00 9.80 C 91.00 10.30 88.07 16.86 84.50 24.39 C 78.19 37.67 78.00 38.30 78.00 46.03 L 78.00 54.00 L 74.00 54.00 L 70.00 54.00 L 70.06 45.25 Z M 238.00 31.50 L 238.00 9.00 L 254.00 9.00 L 270.00 9.00 L 270.00 13.00 L 270.00 17.00 L 258.00 17.00 L 246.00 17.00 L 246.00 31.50 L 246.00 46.00 L 258.00 46.00 L 270.00 46.00 L 270.00 50.00 L 270.00 54.00 L 254.00 54.00 L 238.00 54.00 L 238.00 31.50 Z M 280.00 53.35 C 280.00 53.00 282.70 48.34 286.00 43.00 C 289.30 37.66 292.00 32.79 292.00 32.18 C 292.00 31.57 289.59 27.09 286.64 22.23 C 277.92 7.86 278.20 9.00 283.39 9.00 C 287.80 9.00 287.90 9.07 291.59 15.25 C 297.46 25.07 296.78 24.99 302.15 16.55 C 306.88 9.15 307.06 9.00 311.09 9.00 C 314.34 9.00 315.09 9.32 314.64 10.50 C 314.32 11.32 308.31 21.44 301.28 32.99 L 288.50 53.99 L 284.25 53.99 C 281.91 54.00 280.00 53.71 280.00 53.35 Z M 303.67 50.25 C 298.72 42.37 298.65 42.07 300.63 38.39 C 301.63 36.52 302.75 35.00 303.11 35.00 C 303.48 35.00 305.70 38.26 308.05 42.25 C 310.41 46.24 312.99 50.51 313.78 51.75 C 315.21 53.97 315.16 54.00 310.63 54.00 C 306.39 54.00 305.84 53.70 303.67 50.25 Z M 326.23 31.75 L 326.50 9.50 L 338.10 9.50 C 351.08 9.50 353.84 10.38 357.03 15.56 C 359.43 19.43 359.59 25.95 357.41 30.55 C 355.18 35.25 348.83 38.21 341.82 37.80 L 336.50 37.50 L 336.19 33.75 L 335.88 30.00 L 341.78 30.00 C 348.58 30.00 351.00 28.25 351.00 23.33 C 351.00 18.60 348.39 17.00 340.67 17.00 L 334.00 17.00 L 334.00 35.50 L 334.00 54.00 L 329.98 54.00 L 325.96 54.00 L 326.23 31.75 Z M 370.00 31.50 L 370.00 9.00 L 386.00 9.00 L 402.00 9.00 L 402.00 13.00 L 402.00 17.00 L 390.00 17.00 L 378.00 17.00 L 378.00 31.50 L 378.00 46.00 L 390.00 46.00 L 402.00 46.00 L 402.00 50.00 L 402.00 54.00 L 386.00 54.00 L 370.00 54.00 L 370.00 31.50 Z M 413.00 31.50 L 413.00 9.00 L 423.75 9.00 C 431.99 9.00 435.31 9.41 437.98 10.75 C 447.50 15.54 448.74 28.34 440.32 34.96 L 437.60 37.10 L 441.79 45.55 L 445.99 54.00 L 441.50 54.00 L 437.02 54.00 L 433.03 46.07 C 429.64 39.32 428.63 38.09 426.27 37.82 C 423.86 37.54 423.46 37.01 423.19 33.75 L 422.88 30.00 L 428.22 30.00 C 435.10 30.00 438.00 28.07 438.00 23.50 C 438.00 18.73 435.15 17.00 427.28 17.00 L 421.00 17.00 L 421.00 35.50 L 421.00 54.00 L 417.00 54.00 L 413.00 54.00 L 413.00 31.50 Z M 468.00 44.00 L 468.00 34.00 L 472.00 34.00 L 476.00 34.00 L 476.00 44.00 L 476.00 54.00 L 472.00 54.00 L 468.00 54.00 L 468.00 44.00 Z M 248.00 34.00 L 248.00 30.00 L 256.00 30.00 L 264.00 30.00 L 264.00 34.00 L 264.00 38.00 L 256.00 38.00 L 248.00 38.00 L 248.00 34.00 Z M 380.67 37.33 C 380.30 36.97 380.00 35.17 380.00 33.33 L 380.00 30.00 L 388.50 30.00 L 397.00 30.00 L 397.00 34.00 L 397.00 38.00 L 389.17 38.00 C 384.86 38.00 381.03 37.70 380.67 37.33 Z M 67.15 32.97 C 66.62 31.61 64.11 26.08 61.59 20.68 C 59.07 15.28 57.00 10.44 57.00 9.93 C 57.00 9.42 58.73 9.00 60.84 9.00 C 64.66 9.00 64.71 9.06 68.34 16.79 C 70.35 21.08 72.00 25.08 72.00 25.69 C 72.00 26.29 71.13 28.73 70.06 31.11 C 68.16 35.36 68.10 35.40 67.15 32.97 Z M 468.00 24.00 L 468.00 17.00 L 461.50 17.00 L 455.00 17.00 L 455.00 12.98 L 455.00 8.95 L 471.75 9.23 L 488.50 9.50 L 488.81 13.25 L 489.12 17.00 L 482.56 17.00 L 476.00 17.00 L 476.00 24.00 L 476.00 31.00 L 472.00 31.00 L 468.00 31.00 L 468.00 24.00 Z" stroke-linecap="round"></path>
</g>
</g>
</g>

  </svg>